/* XPM */
static char *_545853013172[] = {
/* columns rows colors chars-per-pixel */
"64 64 226 2 ",
"   c #020303",
".  c #060807",
"X  c #04060A",
"o  c #070A0A",
"O  c #0A0D0D",
"+  c #100F0B",
"@  c #15130E",
"#  c #0B0E11",
"$  c #080C16",
"%  c #0D1214",
"&  c #0E141A",
"*  c #121415",
"=  c #1D1913",
"-  c #181917",
";  c #141A1C",
":  c #211D16",
">  c #1E201F",
",  c #28200C",
"<  c #25221B",
"1  c #2B251B",
"2  c #2C271D",
"3  c #382C14",
"4  c #34291E",
"5  c #171D21",
"6  c #1B2224",
"7  c #1D252A",
"8  c #1F2330",
"9  c #272828",
"0  c #232A2C",
"q  c #332C22",
"w  c #3A2E23",
"e  c #3C3224",
"r  c #3B3428",
"t  c #262D32",
"y  c #2B3438",
"u  c #343A3C",
"i  c #383A38",
"p  c #403018",
"a  c #483818",
"s  c #543C1C",
"d  c #443A2B",
"f  c #563727",
"g  c #473C32",
"h  c #633E2F",
"j  c #5C4020",
"k  c #54412D",
"l  c #4D4334",
"z  c #554837",
"x  c #5B503E",
"c  c #6C4824",
"v  c #744C28",
"b  c #694E3C",
"n  c #794738",
"m  c #2E3A41",
"M  c #373C41",
"N  c #343D43",
"B  c #3B4347",
"V  c #3F4C51",
"C  c #444A4C",
"Z  c #574B44",
"A  c #5C5547",
"S  c #454C53",
"D  c #4B5253",
"F  c #4B575B",
"G  c #565959",
"H  c #6B4F44",
"J  c #655947",
"K  c #6B5C49",
"L  c #775B46",
"P  c #685C53",
"I  c #52605B",
"U  c #77624D",
"Y  c #6A6357",
"T  c #756856",
"R  c #7F735D",
"E  c #4E5F66",
"W  c #575D63",
"Q  c #5A6466",
"!  c #596769",
"~  c #5D6569",
"^  c #5B6D76",
"/  c #656867",
"(  c #6D6D66",
")  c #636A6B",
"_  c #797367",
"`  c #646E73",
"'  c #657375",
"]  c #6A7375",
"[  c #6A777C",
"{  c #757877",
"}  c #737B7D",
"|  c #9C4C00",
" . c #B45400",
".. c #84443D",
"X. c #905C34",
"o. c #9B553E",
"O. c #E46C00",
"+. c #FC7800",
"@. c #855946",
"#. c #8F524C",
"$. c #A15E43",
"%. c #876A56",
"&. c #8F6B53",
"*. c #9A755D",
"=. c #AA7B5F",
"-. c #867866",
";. c #88756B",
":. c #957966",
">. c #9B7D63",
",. c #A67A67",
"<. c #AF7569",
"1. c #7A837C",
"2. c #9C9C00",
"3. c #B4AC00",
"4. c #FC8820",
"5. c #CCC400",
"6. c #E4D800",
"7. c #8E816C",
"8. c #9C846C",
"9. c #888474",
"0. c #988877",
"q. c #9E927D",
"w. c #A3866B",
"e. c #A8876A",
"r. c #B3866D",
"t. c #A98975",
"y. c #B58C76",
"u. c #AD9178",
"i. c #B2937B",
"p. c #B3967A",
"a. c #BA937D",
"s. c #C4927A",
"d. c #6A7A82",
"f. c #737C81",
"g. c #787F84",
"h. c #B07F82",
"j. c #748284",
"k. c #7B8486",
"l. c #73848B",
"z. c #7A8589",
"x. c #7C8A8C",
"c. c #7C8B92",
"v. c #7D9493",
"b. c #878A86",
"n. c #828C8D",
"m. c #959088",
"M. c #818E91",
"N. c #849294",
"B. c #8B9799",
"V. c #929797",
"C. c #949C9D",
"Z. c #AC9485",
"A. c #A6978A",
"S. c #AA968C",
"D. c #B59583",
"F. c #B79784",
"G. c #BB9B85",
"H. c #B39D8D",
"J. c #BC9C8A",
"K. c #BC9E91",
"L. c #9BA19C",
"P. c #B9A288",
"I. c #BEA28B",
"U. c #ACA399",
"Y. c #B6A493",
"T. c #BAA493",
"R. c #B7A798",
"E. c #BBA99B",
"W. c #8C9BA2",
"Q. c #969EA3",
"!. c #98A5A9",
"~. c #94ABAB",
"^. c #9CAAB2",
"/. c #A7A9A8",
"(. c #A3AAAD",
"). c #B5AEA7",
"_. c #A5AEB3",
"`. c #A8ADB1",
"'. c #AAB5B7",
"]. c #B5B8B7",
"[. c #B4B9BB",
"{. c #C29985",
"}. c #C29D8A",
"|. c #C2A48D",
" X c #C4A88F",
".X c #C2A592",
"XX c #C8A596",
"oX c #C3A995",
"OX c #C3AC9C",
"+X c #CAAD9E",
"@X c #CBB09E",
"#X c #C5ADA2",
"$X c #CCB2A3",
"%X c #CAB7A9",
"&X c #D6B6A9",
"*X c #D7BDB3",
"=X c #B4C1BE",
"-X c #C7C3BC",
";X c #DBC4B6",
":X c #E1CBB9",
">X c #EBD5BD",
",X c #AEBBC5",
"<X c #B6BEC3",
"1X c #B9C3C6",
"2X c #BBD1CF",
"3X c #B9C8D4",
"4X c #C8CBC9",
"5X c #D7D1C9",
"6X c #C5CDD2",
"7X c #CAD6D6",
"8X c #D5D8D9",
"9X c #DADCDB",
"0X c #EADBCC",
"qX c #D8E3DE",
"wX c #CBDAE5",
"eX c #D3DEE5",
"rX c #D3E7E9",
"tX c #D9E6E8",
"yX c #D9E8F3",
"uX c #E5E9E9",
"iX c #EEF2ED",
"pX c #EAF2F7",
"aX c #F3F4F4",
"sX c #F5F7F7",
"dX c #F6FAFA",
"fX c #FDFEFE",
/* pixels */
"p p p p p p p p p p p p p p p p 3 p p p p p p p p p p p p p p p p p p p p p p p 3 3 p p p p 3 p p p p p 3 p p p p p 3 p p p p p ",
"c c c c c c c c c c c c c c c c c c c c c c c c c c c c c c c c c c c c c c c c c c c c c c c c c c c c c c c c c c c c c c c c ",
"X.X.X.X.X.X.X.X.X.X.X.X.X.X.X.X.X.X.X.X.X.X.X.X.X.X.X.X.X.X.X.X.X.X.X.X.X.X.X.X.X.X.X.X.X.X.X.X.X.X.X.X.X.X.X.X.X.X.X.X.X.X.X.X.",
"s s s s s s s 3 s , 3 s s s s s s s s s s s s s s 3 s , 3 s s s s 3 s , 3 s s s s s s 3 j , 3 s s s s j s s s s j s 3 s , 3 s j ",
"a a c v v v v s X., s X.j a a a a v v a c a c a a s X., s X.v a v s X., s X.j a a a j s X., s X.a v a a v a v a v v s X., s X.c ",
"a a c v v v j s X., s X.c a a a s v v a c a c a a s X., s X.v a v s X., s X.v j a j c s X., s X.a v a a v a v a v v s X., s X.c ",
"a a j v v 3.3.3.3.3.3.3.3.3.3.3.3.3.3.3.3.3.3.3.3.3.3.3.3.3.3.3.3.3.3.3.3.3.3.3.3.3.3.3.3.3.3.3.3.3.3.3.3.3.3.3.3.3.2. ., s X.c ",
"s a s c v 3.4.4.4.4.4.4.4.4.4.4.4.4.4.4.4.4.4.4.4.4.4.+.+.+.+.+.+.+.+.+.+.+.+.+.+.+.+.+.+.4.O.O.O.O.O.O.O.O.O.O.O. . .s , s X.c ",
"c a a j v 3.4.      7 I ' 1.j.j.j.j.j.j.j.l.x.j.j.k.x.M.N.N.~.~.E y M j.sXfXfX6Xz.S N.(.! % % O # $ % ; 7 6 ; O O 2. .s , s X.s ",
"c a s a j 3.4.  .   * D ' 1.[ [ j.} [ 1.j.j.l.j.j.k.v.N.v.N.C.L.9.Y ;.m./.sXfXfX<XN.(.n.5 # # O O O O ; 7 ; # . O 3. .s , s X.s ",
"v s a a s 3.4.      . M ^ 1.j.j.z.z.j.1.j.z.j.1.x.x.v.n.N.B.m.9.T T 9.9.U.9XfXfXsX<XC.B % % % % % % % % ; % O O o 3. .s , s X.s ",
"v s a a a 3.4.; % . . 7 ! j.l.x.x.v.v.x.l.v.x.x.x.N.B.V.C.m.1.K l d J -.7.A.-XaXfXiX} ; % % % % % % % * & % O O # 3. .s , s X.a ",
"c v a a a 3.4.o .   . # D 1.l.x.n.N.N.x.x.M.x.x.x.v.N._ Y _ J l d 4 b R Y 7.q.=XuXfX[.i * % % & 6 5 & % % # O # % 3. .s , s X.a ",
"c v s a a 3.4.o .   . . y ] j.x.v.N.N.z.x.x.v.x.v.1.Y l Y z l 3 e 2 J J z J 7.7.q.R.U.( > % * ; 5 ; % % # # O # O 3. .s , s X.a ",
"j v v a s 3.4.o o . . . 5 ! j.x.x.N.N.x.x.M.N.x.x.{ B.A x 3 d e e 4 e d r l K T J K -.7.A % # % * O o O O O o o O 3. .s , s X.a ",
"s v v v s 3.4.. . . . . # V 1.x.N.N.N.n.v.M.M.N.k._ ( z l w 4 r x e 2 r x l r d l J U -.-.A % % % # O O # % O O O 3. .s , s X.s ",
"a c v v j 3.4.* ; ; ; - ; u ^ l.v.B.N.v.M.N.N.b.A r r r q 2 : l e < 2 < d r 1 = l x x K 0.q.Y % # % % * % % + o O 3. .s , s X.s ",
"a c v v v 3.4.O O % % % * 6 E 1.B.B.v.v.M.N.m.T l 4 < , @ + @ : w w = = < 4 2 2 e d k x b R 7.Y 7 0 m N y 0 0 0 0 3. .s , s X.s ",
"a j c v v 3.4.O O . . . O ; V 1.j.x.l.l.x.b.1.x 2 @ @ . + @ @ @ < w 2 - < 4 2 4 , 2 e d J A T T 7 D ' 1.I 0 y m y 3. .s , s X.c ",
"a s c v v 3.4.O . O ; O . 6 u ! 1.l.1.j.1.9.T k = @ @ @ : @ = : 1 @ 1 2 2 2 1 : = < 2 4 3 l 0.T ; V ( 1.G & 6 6 % 3. .s , s X.c ",
"a a j v v 3.4.o o % % O O % ; F x.B.N.v.N.9.J l 2 1 2 < 2 2 2 2 q 2 2 < 9 1 1 2 : = O : 4 A 7.7.< ; % * % % 5 ; % 3. .s , s X.c ",
"a a s v v 3.4.O O O o O O % @ B j.B.B.N.b.Y z w w d k l l l l k l l r , = r 9 r < O + @ q A 7.-.T ; % % % ; 0 ; & 3. .s , s X.c ",
"s a s j s 3.4.7 0 7 7 7 0 y M C ' B.C.N._ K r 3 k K -.8.:.-.%.-.:.%.%.K d q r 4 1 = @ = 4 J 7.%.1.< @ * & 7 m ; & 5. .a , s X.c ",
"s a a s a 3.4.! I ) ) I ) ' ' ' ] v.N.n.7.x d x %.w.P.oXI.I.P.P.G.G.Z.Z.:.U x d 1 1 = = d Y 7.-.1.3 9 9 7 0 y 7 7 5. .3 , s X.c ",
"s a a a a 3.+.n.n.n.n.k.x.z.z.j.} j.j.j.T x l U p.I.oXoX X|. XI.P.E.oXT.I.P.A.:.Z q : w A ;.-.-.Z 0 0 t B F m m B 5. .p , s X.j ",
"c a a a a 3.+.^.B.n.n.B.W.^.'._.~.B.x.j.Y x K 8.P.I. X X X|. X XoXoX+X+X@X#X@XR.S.Y d g ( Y G i & $ & 5 <XaX[ & & 5. .3 , s X.s ",
"c a a a a 3.+.fXdXuX^ ! [ l.l.] ' I B C Y J U t.I.I.I.I.|.{.I.|.|.oX+X$X$X%X$XOXR.H.P P _ M M B N y y E dXfXx.& % 5. .3 , s X.s ",
"c s a a a 3.+.fXfXaXc.! ~ ~ Q Q Q ! ! ) K z U p.P.I.|.I.|.y.G.I.I.I.oX+X@X$X$XE.E.).;.P { d.N.uXeXz.F c.8X6X^ ; & 5. .r , s X.a ",
"j s a a a 3.+.fXfXfXfX8XM.N.M.N.n.n.x.1.P l T I.|.a.|. X X|.I.G.J.J..XXX$X$X+XOXE.E.0.P `.!.^.iXfXdXn.Q.!.W.d.y y 5. .p , s X.a ",
"s c a a a 3.+.'.fXfXfXaX8X`.B.M.1.' ! ' K k t.I. X XI.|.|.|.|.I.J.J.J.OX$X$X$XOXOXE.b.Y aXaXB.c.[.<X` l.l.k.d.d.[ 6. .p , s X.a ",
"s c s a a 3.+.N.4X8XfXfXfXaX_.x.j.k.n.9.T K R.H.u.A.D.F.G.G.G.}.J..X}.XX$X$X$X#XE.E.m./ eXfX,X^.^.^.!.!.!.^.!.tXdX6. .p , s X.a ",
"a j s a c 3.+.D M / 9XaXfXfXeXk.l.v.V.e.K 7.A.z r e l T >.t.y.y.F.}.F.J.K.T.E.OX#X#XS.T ^.Q.~.^._._.^.3XdXpXW.dXuX6. .p , s X.a ",
"a s c s c 3.+.y O B ` } 8XpX8XM.n.x.0.o.U q.Z.*.@.H h f 3 z %.=.,.y.t.:.%.T P P P Z.V.;.`.W.W.W.Q.~.W.2XpX[.` ^ c.6. .p , s X.a ",
"a s c s c 3.+.g.* D n.M.N.C.C.Q.C.V.Z.r.%.P.p.&.h C q d f f v &.=.,.*.b f f H %.;.T Z.;.}.Q.~.^.^._.<X3X1X,X^.^.^.6. .p , s X.a ",
"a a s c f 3.+.M.; G V.'.3XwXtX6X1X7X).=.@.E.P.y.,.;.p Z H s n *.p.a.&.h f q g H &.Z.).t..X<X2X7XpXfXdXfXfXfXiX,X'.6. .p , s X.s ",
"a a s c s 3.+.z.5 ) !.wXpXdXfXfXiXiX9X$.,.oX|.{.y.=.&.&...L &.a.@X$X:.@.L g M Z.;.Z.%X}.5XyXfXfXfXfXfXfXfXfXdX3X1X6. .3 , s X.s ",
"a a a s a 3.+.x.6 ` (.rXpXdXfXfXqX5X-Xr.,.oX|.|.s.e.>.*.*.w.a.XX&X&Xh.:.#.#.:.t.p.$X;Xy.qXrXdXpXrXyXfXfXfXfXpX7X6X6. .p , s X.f ",
"a a a a a 3.+.M.6 { `.eXyXpXfXdXuX'./.s.r..X{.{.{.{.a.a.a.G.|.+X&X*XXXS.Z.<.,.D.|.;X;Xs.qXrXpXrXtXtXfXfXfXfXsXwX7X6. .p , s X.v ",
"a a a a a 3.+.M.6 } '.wXyXpXfXuX2Xv.C.a.r.I.J.{.{.{.{.a.s.{.I.$X&X*X#X}.K.}.G.XX;X;X:X:XqXrXaX7XuXdXfXfXfXfXaXeXrX6. .p , s X.c ",
"s a a a a 3.+.M.5 } [.3XyXdXfXyX~.~.C.U.<.J.G.}.{.{.s.y.y.F.oX&X&X;X#X}.F.{.XX&X;X;X-X>X2XrXiXqXrXdXfXfXfXfXuXrXrX6. .p , s X.c ",
"s a a a a 3.+.n.5 g.].wXwXpXfXdXiX7X~.'.=XP.p.p.s.y.r.=.=. X X+X$X&X*XF.s.}.XX$X*X*X*X5X3X2XrX7XtXdXfXfXfXaXeXyXyX6. .p , s X.s ",
"c s a a a 3.+.z.y f.`.<XwXpXdXdXfXtX~.v.N.P.H.p.r.r.=.=.,.=.n ,.<.K.<.}.y.F.}.XX%X%X].].'._.1X2XuXaXdXdXtX2X1XwXyX6. .p , s X.s ",
"c s a a a 3.+.z.f.G g.M.^.,X3X6X=XB.j.] ) m.p.u.r.e.e.u.y.,.&.L :.;.h.K.{.y.H.K.E.U.] c.c.1X<X(.V.1.C.8X'.W.N.Q.3X6. .p , s X.a ",
"c f s a s 3.+.b.W.~ ~ ] g.d.h.^.) { ] ) ] U.i.u.e.e.e.p.y.r.*.&.%.,.D.T.F.F.D.H.E.U.n.<X_.(.g.S 7 B n.`.Q.Q.Q.W.B.6. .p , s X.a ",
"c c s s s 3.+.B ~ W G G `.Q.u ) D D D D D V.D.u.e.e.&.e.D.r.<.<.<.K.#X#XS.Z.H.H.E./.g.d.W W M o 0 W [ ) ) ) ~ ) ! 6. .p , s X.a ",
"j c j s f 3.+./.(.B.m X b.Q.F C C B B M C C.H.i.u.w.&.&.#.n ....#.#.#.<.:.:.H.R.R.[._.` X X X M ] n.g.] ` ) ) W ~ 6. .p , s X.a ",
"s c c j c 3.+./ ` V.F X y i 9 9 : 5 - - y C./.u.u.e.e.y.r.<.<.<.<.<.h.S.Z.t.K.E.m.m t 5   X X M C 9 9 9 9 9 9 5 5 6. .p , s X.a ",
"s c c j c 3.O.  8 n.` t O .           . - C.].i.u.e.e.e.,.&.@.@.#.&.h.H.D.Z.E.R.g X X X   M z.W.S X   X       X   6. .p , s X.a ",
"a c v v v 3.O.N.C.[.[._.Q.Q./.Q.!.(._.`.d.(.'.p.u.u.e.u.e.e.=.*.*.,.t.D.P.Y.R.A.X X   W h.Q.8X8XQ.g.g.f.f.f.d.{ d.6. .p , s o.a ",
"a j v v v 3.O.4X4X4X4X4X1X[.[.[.].].].1X!.<X6Xp.w.w.p.p.a.p.p.i.D.D.F.Y.R.R.Y.H.    8 [.wXeXuXuX9X9X8X8X5X4X4X1X<X6. .p , s X.a ",
"a s c v v 3.O.t i t 9 9 > - - @ O . X ` ^.Q.).u.e.*.u.u.u.u.e.8.t.K.T.Y.U.H.OXE.V S S ) F G G G G G S S C B M i i 6. .p , s X.a ",
"a s c v v 3.O.                        ' 6X_.h.A.e.8.8.8.7.*.:.-.:.0.A.A.H.Y.$X-X(._.(.j.$ X X $ $ & $ $ O X X X X 6. .p , s X.s ",
"a a j v c 3.O.                        ` 7X8X4XP.e.e.8.8.8.U U T %.;.m.H.J.R.%X:X0X5X4Xb.$ X X O $ $ $ O X X X X X 6. .p , s X.s ",
"a a s c c 3.O.                        ~ 7XqXOXp.p.e.8.w.e.8.X.v %.:.Z.Y.I.E.%X;X0X>XsXsX/.0 X X X X X X X   X     6. .p , s X.s ",
"a a s c j 3.O.                        ) 9X8XP.P.p.e.e.w.e.e.8.7.8.Z.R.R.R.E.&X:X>X>XsXsXdXaX].G X X X X   X       6. .p , s X.j ",
"a a a j j 3.O.                      ] 5XqX9XP.P.p.e.e.w.e.8.8.&.t.H.T.R.Y.OX$X;X>X0XsXsXfXdXsXfXeX/.y X X X X     6. .p , s X.c ",
"a a a s s 3.O..                 G `.9X9X9X9X%XP.p.u.u.w.w.8.*.8.t.U.R.Y.Y.E.%X;X:XuXsXsXfXsXsXsXaXaXaXuX8X/.) X X 6. .p : s X.c ",
"s a a a a 3.O.y y M N S S F ~ <XuXqX8X8X9X8X5XI.p.u.8.8.8.8.8.t.S.H.R.Y.R.OX%X;X0XdXaXsXsXsXaXfXdXaXaXaXaXaXdXuX-X6. .p , s X.v ",
"s a a a a 3.O.O.3.3.3.3.3.3.3.3.3.3.3.3.3.5.5.5.5.5.5.5.5.5.5.5.6.6.6.6.6.6.6.6.6.6.6.6.6.6.6.6.6.6.6.6.6.6.6.6.6.6. .p , s X.v ",
"f a a a a 3. . . . . . . . . . . . . . . . . . . . . . . . . . . . . . . . . . . . . . . . . . . . . . . . . . . . . .p , s X.v ",
"j s a a a | s s s s s s 3 p p p p p p p p p 3 a 3 e a 3 a p p p p p p p 3 3 p 3 3 3 3 p p p p p p p p p p p p p p p p p , s X.v ",
"c s a a a s c s s , , s 3 3 3 p a p 3 3 3 3 j j a s s , , s j j f 3 3 , , s 3 3 3 3 3 a a , , a a a a a 3 3 3 3 3 a a , , s X.v ",
"c j a a a s c s X., s X.a a a a j a a a a c v v j s X., s X.c j a s X., a X.a a a a a s X., s X.j a v f a a a a a a s X., s X.v ",
"j j j j f s c s X., s X.f a a a a a a a j j j j j s X., s X.j a a s X., s X.c a a a s s X., s o.j a j j a a a a a a s X., s X.j "
};
