/* XPM */
static char *_545708648812[] = {
/* columns rows colors chars-per-pixel */
"64 64 246 2 ",
"   c #020303",
".  c #050807",
"X  c #04060A",
"o  c #06090A",
"O  c #090C0D",
"+  c #080805",
"@  c #15130E",
"#  c #070B12",
"$  c #0B0E11",
"%  c #0A0E1A",
"&  c #0D1214",
"*  c #0D1419",
"=  c #121416",
"-  c #1D1913",
";  c #141A1C",
":  c #161818",
">  c #100F0B",
",  c #211D16",
"<  c #25221B",
"1  c #2B251B",
"2  c #2C271D",
"3  c #34291E",
"4  c #151D22",
"5  c #191E22",
"6  c #110F2A",
"7  c #1B2124",
"8  c #1E2529",
"9  c #1C272D",
"0  c #1F2330",
"q  c #21272B",
"w  c #232A2D",
"e  c #292926",
"r  c #352C22",
"t  c #3C3224",
"y  c #3B3428",
"u  c #252C32",
"i  c #2B3234",
"p  c #2B353B",
"a  c #28353B",
"s  c #343A3C",
"d  c #353837",
"f  c #1E201F",
"g  c #443A2B",
"h  c #473B2B",
"j  c #563727",
"k  c #473C32",
"l  c #633E2F",
"z  c #4D4334",
"x  c #554837",
"c  c #594B38",
"v  c #794738",
"b  c #694E3C",
"n  c #343D43",
"m  c #363D42",
"M  c #2C3148",
"N  c #3A316B",
"B  c #3A4348",
"V  c #3C4A52",
"C  c #434A4C",
"Z  c #5C5547",
"A  c #444C53",
"S  c #4B5253",
"D  c #4A555A",
"F  c #55595A",
"G  c #574B44",
"H  c #6B5C49",
"J  c #655947",
"K  c #775B46",
"L  c #68584F",
"P  c #77624D",
"I  c #6A6357",
"U  c #756856",
"Y  c #7F735D",
"T  c #4D5E63",
"R  c #565E63",
"E  c #5B6366",
"W  c #5D656A",
"Q  c #586669",
"!  c #52666F",
"~  c #636B6C",
"^  c #646767",
"/  c #797367",
"(  c #646D73",
")  c #657274",
"_  c #6B7374",
"`  c #6D757B",
"'  c #6D7B7C",
"]  c #63737B",
"[  c #737B7C",
"{  c #747979",
"}  c #6D6D66",
"|  c #52605B",
" . c #904D3E",
".. c #855946",
"X. c #8F524C",
"o. c #876A56",
"O. c #9A755D",
"+. c #8F6B53",
"@. c #AA7B5F",
"#. c #867866",
"$. c #9B7D63",
"%. c #957966",
"&. c #88756B",
"*. c #A67A67",
"=. c #AF7569",
"-. c #A15E43",
";. c #7B827C",
":. c #8E816C",
">. c #9D856C",
",. c #888474",
"<. c #988777",
"1. c #9E927D",
"2. c #A3866B",
"3. c #A8876A",
"4. c #A88A75",
"5. c #B58C76",
"6. c #AD9278",
"7. c #B2937B",
"8. c #B7957C",
"9. c #B3866D",
"0. c #C4927A",
"q. c #677982",
"w. c #737C82",
"e. c #777E84",
"r. c #B07F82",
"t. c #748284",
"y. c #7A8485",
"u. c #7B858A",
"i. c #7C8A8C",
"p. c #74848B",
"a. c #7B8B93",
"s. c #7E9295",
"d. c #828C8D",
"f. c #878987",
"g. c #818E91",
"h. c #828F98",
"j. c #849294",
"k. c #8A9395",
"l. c #8B969B",
"z. c #8D9A9C",
"x. c #85959A",
"c. c #949C9D",
"v. c #929797",
"b. c #959088",
"n. c #AC9485",
"m. c #A89789",
"M. c #B59583",
"N. c #BB9B85",
"B. c #B39D8D",
"V. c #BC9C8A",
"C. c #B79784",
"Z. c #BC9E91",
"A. c #AA968C",
"S. c #BEA28B",
"D. c #B9A288",
"F. c #B5A393",
"G. c #BAA493",
"H. c #BBA99B",
"J. c #B7A799",
"K. c #ACA399",
"L. c #8C9AA1",
"P. c #969EA2",
"I. c #93A2A5",
"U. c #9AA3A5",
"Y. c #9CA5AA",
"T. c #9BA9AD",
"R. c #96A6A8",
"E. c #9BAAB3",
"W. c #94ABAB",
"Q. c #A3AAAC",
"!. c #A6A9A8",
"~. c #BAACA3",
"^. c #A4ADB2",
"/. c #A9ADB4",
"(. c #A9B5B7",
"). c #B3BABB",
"_. c #B6BAB9",
"`. c #ABB2AD",
"'. c #9BA19C",
"]. c #C29D8A",
"[. c #C29985",
"{. c #C2A48D",
"}. c #C4A88F",
"|. c #C2A592",
" X c #C3A995",
".X c #C3AC9C",
"XX c #C9AA9B",
"oX c #CBB09E",
"OX c #C5ADA2",
"+X c #CCB2A3",
"@X c #C8B6A7",
"#X c #D6B6A9",
"$X c #D6BDB2",
"%X c #B5C1BE",
"&X c #DBC4B6",
"*X c #C7C3BC",
"=X c #EBD5BD",
"-X c #E1CBB9",
";X c #B4BEC2",
":X c #B9BFC4",
">X c #ACB9C3",
",X c #B5C2C3",
"<X c #BCC3C4",
"1X c #BBC6CB",
"2X c #BAC8D4",
"3X c #BBD1CF",
"4X c #C4CACC",
"5X c #CACDCD",
"6X c #C5C7C5",
"7X c #C5CDD1",
"8X c #CACED2",
"9X c #CCD2D4",
"0X c #CCD5DA",
"qX c #C9D7D8",
"wX c #D3D5D6",
"eX c #D6D8D7",
"rX c #D3D6D9",
"tX c #D6D9DA",
"yX c #DADCDB",
"uX c #D9D9D6",
"iX c #D7D1C9",
"pX c #EADBCC",
"aX c #DDE0DF",
"sX c #D3E6DF",
"dX c #CCD9E2",
"fX c #D2DDE3",
"gX c #D8DEE3",
"hX c #DDE2E3",
"jX c #D8E6E9",
"kX c #D7E8EF",
"lX c #E2E4E5",
"zX c #E3E6E8",
"xX c #E6E9EB",
"cX c #EBEDED",
"vX c #E7EAE6",
"bX c #EEF0EF",
"nX c #ECEEF1",
"mX c #EEF1F1",
"MX c #E8F3F9",
"NX c #F3F4F4",
"BX c #F6F8F7",
"VX c #F4F6F8",
"CX c #F6FAFA",
"ZX c #FDFEFE",
"AX c #F8F8F7",
"SX c #F1F2EF",
/* pixels */
"o o .   . . . f E ) t.p.p.t.t.t.t.t.p.i.i.i.i.i.;.i.i.i.j.Q.s.V qXZXZXgXl.w.Q.[ i ;.W.;.9 & & & & & ; ; ; ; ; & 7 9 9 w w w i n ",
". o           . B Q ] ;.t.t.p.t.t.t.p.i.i.i.i.s.s.j.k.j.'.W.;.a ] mXZXZX0XQ.I.B | '.'.V & & $ & & & * * & & O O O O o O o ; B T ",
"                w | ) ;.t.t.t.;.t.] t.i.i.t.t.i.i.j.j.j.I.W.| i B y.NXZXZX7Xu.A j.!.~ & & O $ & & ; 7 7 ; & O O O O O O O ; V | ",
". .             = D ) ;.;.t.t.;.t.;.;.t.i.;.p.t.s.j.j.j.I.'.;.I { b.`.AXZXAX:Xx.Q.s.4 O O O $ o O 4 9 ; & . . . . . . O . . & & ",
"o . o o . . . . . s ! ;.t.t.p.t.;.;.t.t.t.t.t.i.d.j.s.z.v.,.U P :.,.K.eXZXZXBX:Xz.B & & & & & & & & ; O O . . O O O O o O O . . ",
"O & & & ; = O . . 9 ! ;.p.p.s.s.s.i.i.s.i.i.i.x.z.v.z.b.,.H z z J #.,.m.*XNXZXNX;.; & & & & & & & ; ; O O O > O O O $ O O O O & ",
". o . . O o .   . O S ;.y.i.s.s.j.i.i.s.s.i.i.s.j./ I Y J z 3 3 J U U #.b.*XvXZX%Xy ; & & ; 7 ; ; & & & & O & O > O O . O O O O ",
"  . . . . . . . . . a ;.t.i.i.j.j.i.i.i.s.i.t.;.I z I c z t 3 3 b J x H :.:.1.K.1.;.f & & ; 7 ; & O & O O & O & $ $ & $ O & O & ",
". . . > . . O . . . f Q ;.s.s.s.s.i.i.i.j.i.i.;.z.c c t t t y 2 y y y z H U H H :.:.c & O & & O . O $ O o o O o O o + O . . o o ",
". O . . . . . . . . O S ;.p.j.s.j.i.i.j.d.j.t./ } x z t r z c t 2 z c z y t c J H Y ;.I & & & O O $ $ > O O O O $ $ O O O O O o ",
"; ; ; ; & & ; ; : ; ; s ) i.j.j.j.i.s.j.j.f.J g t g 3 < , z y < 2 1 g y 1 - z c J P >.1.I > O & = = = O O O $ $ O $ $ $ $ o O O ",
". . . O . > & & O & = 7 Q y.j.z.j.j.j.j.b.U z r , , > > @ - t r - - < 2 2 3 3 z h c J U :.I 9 w p n p w w u w 8 8 7 7 w 7 5 7 5 ",
"O . . . . O . . O . O ; B ) i.i.p.i.i.j.;.c 1 @ @ . > > > @ < t 2 - < r 2 r < 2 t g J c Y U 9 S ) ;.| u p s i i a w p p p a a p ",
"& . . . . O O O & O . 7 n Q ;.;.;.;.t.,.H z - @ @ - , - , , < @ < 2 2 < < , @ < 1 2 t z <.U f V ~ ,.| * 4 7 & $ O & $ $ O $ * ; ",
"& o o . . O . & & O O & ; D p.x.j.j.1.;.H g 2 1 2 < 2 3 2 r r 2 2 , 2 < < 2 < - > - 3 J :.:., = & & & & 4 ; & $ & 8 ; & & & 7 a ",
"T B 9 & O O O O O O O & & B t.z.j.s.i.H c t t t z z z z z z z z z - , y 2 g < O > @ 3 c ,.:.I f & & & ; u ; * & 5 Y.x.9 9 a T q.",
"zX8X^.` n 8 8 q 8 8 w i s C ) x.I.j./ J g t z b #.:.%.#.o.#.%.o.o.L g r g e e , @ - 3 Z :.Y #.e : = = 9 p ; * * w.ZXAXQ T V ! ! ",
"ZXZXZXVX^.Q E W W E ~ _ _ _ ] s.j.i.:.J g c +.3.S. X{.S.D.N.D.8.C.6.%.P c g r , , - y P :.o./ i e w 9 w u 9 u a /.ZXmX! T B a 9 ",
"P.<XrXhX^.d.i.d.d.d.i.i.y.t.;.;.t.t.U c z P 7.S. X X}.}.{.{.{.G. XG.Z.B.n.%.G r < 3 J / #.:.Z 8 q i B D n a B ] (.VX:XB V B M M ",
"NXmXhX9X).T.l.d.g.k.z.E.(.^.W.x.i.t.I c H >.S.G.{.}.}.}.{.}.}. XXX+XXXOXOXH.n.I y z } } Z d * # * 4 :XNX' & % T ) p 5 * % & & & ",
"tXcXZXZXZXZXZXlX( ! q.p.i.) ) | B S I H P 6.D.S.8.{.{.D.S.{.S. XXX+X+X+X+X.XJ.B.H F } B m V m a p R ZXZXy.* % % # $ # $ o o o % ",
"A m S v.nXZXZXnXi.Q W Q Q | Q Q Q Q I c P 6.8.S.{.{.0.8.V.S.V.{..XXXoX+XOXOXH.~.&.I { ' a.lXtXu.D a.tX4X] 7 * 4 * * * # # & Q ^.",
"' ) ~ '.AXZXZXZXZXrXj.j.j.j.i.d.;.;.H z o.D.}.D.{.{.{.{.{.V.V.V.{..X+X+XXX.XH.~.b.I `.Y.T.nXZXVXa.L.R.I.' a a a a a ( h.a a xXZX",
"y.[ t.[ w.).ZXZXZXmXuX^.j.j.;.) ~ ) J z 6.S.}.}.{.{.{.{.{.S.S.V.]. X+X+X+XOX.XOX&.I NXNXx.a.;X:X] p.p.p.q.] ] q.q.tXZXCXW.a.>X,X",
"( F F C F j.4XyXZXZXZXmX^.i.t.i.i.;.U H S.B.6.m.n.C.V.N.D.{.[.{.{.|.OX+X+XOXXXH.b.^ gXCX>XQ.(.E.R.P.E.E.W.hXCX,XE.nXxX7XE.>X;X:X",
"z.B B a n S s ^ yXmXZXZXhXy.i.i.'.3.H :.m.z y y z P %.4.5.5.8.V.C.V.|.Z.OX~.OXOXA.U Q.P.R.E.E.E.E.7XCXnXL.BXvXQ.s.L.x.s.s.dXZXZX",
"MXmXzX<XD s $ B ) [ tXnXqXs.d.i.4. .P 1.C.%...b b j 3 l o.O.9.9.4.O.o.U L L L r.Z.{ `.x.L.L.L.I.I.7XxX).] ! i.j.x.x.x.x.a.7XlX5X",
"CXNXZXZXcXy.= S d.d.k.c.'.c.'.c.m.9.+.D.8...x G r r j j v +.@.*.O.b h j L o.U ^ '.%.].W.T.T.E.(.>X>X2X;XE.E.T.R.R.T.T.I.I.L.k.g.",
"sX6X%XuXzXd.; F v.(.2XdXkX2X%X9X~.@...H.8.8.2.o.r G G j v O.0.8.o.j j g k L o.r.~.4.Z.%XqXqXmXZXZXZXZXZXmX;X>X(.(.(.(.(.^.E.T.U.",
"9X7X<X6X4Xi.5 ^ R.fXMXZXZXZXbXSXuX-.*. X{.D.5.3.O.X.....+.5.#X#X*...K k G &.&.A.@XS.wXzXCXZXZXZXZXZXZXZXCX1X1X,X%X,X%X).).(.(.(.",
"4X9X4X4X4Xi.7 ~ ^.kXMXCXZXZXhX5X5X9.3. X{.}.0.3.O.O.O.3.5.}.#X#Xr.%.X.+.%.=.Z.OX&X9.sXjXCXMXjXkXZXZXZXZXMXqX7X4X3X4X1X1X1X1X,X,X",
"qX9X1X1X1Xd.7 { /.fXkXMXZXAXhX).!.0.9.S.{.0.{.0.8.C.8.[.}.oX#X#X|.M.A.*.=.M.|.$X&X0.jXjXMXsXjXkXZXZXZXZXVX0X0XqXqXqXqX7X7X4X1X1X",
"0XqX2X,X<Xg.5 { >XdXkXMXCXMX,Xx.c.0.@.S.].[.[.[.[.8.8.[.].#X$X$XOXZ.].C.].XX#X&X-X&XsXkXBXqXkXCXZXZXZXZXmXfXfXfXfXdXdX0X0X8X7X7X",
"0XrX1X,X<Xg.5 [ >X2XkXMXZXxXW.W.z.K.9.B.N.[.[.[.0.0.5.C.|.#X#X&X+XC.[.].XX#X&X$X&X-X3XsXSXsXsXCXZXZXZXZXxXkXkXfXfXfXfXdXdXdXqXqX",
"0XrX2X).;Xa.5 [ ).2XkXMXZXCXxXqXW.`.%XB.C.C.8.5.=.@.=.G.].XXXX#X$XM.M.[.Z.#X$X$X&X-X3XqXsXqXsXCXZXZXZXBXfXkXkXkXkXfXfXfXfXfXdX0X",
"0X0X,X(./.y.p w.(.2XdXMXZXZXZXzXW.s.x.B.M.8.5.9.@.9.=.O.K =.M.A.r.M.5.[.].XXOX#X%X%XW.E.%XqXvXNXZXCXjX3X:XdXkXdXdX0XdXdX7X2X;X;X",
">X(.L.g.r.p.q.F e.h.E.2X7X8X_.l.;._ ~ m.M.6.4.9.9.9.5.3.+...o.%.*.}.[.8.Z.Z.~.~.] u.a.1X;XT.v.f.c.0X).L.h.P.2X>Xh.>Xh.l.a.g.q.( ",
"T.B ( [ ` f.x.! W _ e.] e./.~ { _ ~ ) K.7.6.3.*.3.9.5.9.*.+.o.*.C.G.C.C.r.Z.~.A.g.:X/.^.u.A 5 m u./.P.P.P.L.L.Y.q.W B m A A e.R ",
"W q ;.u.0 m W R S F Q.P.d ~ S S S S S v.7.6.3.3.+.4.7.5.=.=.=.r.XXOXB.6.A.Z.~.U.e.` R R m O w W _ ^ ~ ^ W W ! Y.h.C C C A A F A ",
"k.P._._.Q.!.!.L.m $ f.Y.F C C m B s C c.B.6.6.2.+.+...v v v X.X.X.*.&.$.Z.Z.OX/./.] .     m _ i.;._ ( ( W ^ W k.Y.P.!.v.v.v.v.P.",
"F ^ ^ ^ R ^ ( k.D X i s e e 5 5 - ; i c.~.6.6.2.9.8.9.@.@.=.=.=.r.A.M.4.J.J.b.n i 4   X # M B w e q e q q 5 , ( /./.{ d d d d n ",
"          X 0 g.( u #             . 5 c._.6.4.3.3.3.3.+... .X.O.n.A.C.M.H.K.k         M r.L.A . X X           R U.!.~ X O $ # # ",
"` w     F k.v.>X).^.U.U.P.P.!.Q.^.^.q.Q.`.7.6.6.6.3.3.3.O.O.O.*.4.n.B.Z.J.m.X     R u.P.tXtXP.e.e.e.e.{ w.` ` w.r.Y.( M w.w.w.` ",
"gXe.  X { 6X5X5X6X6X6X_.:X_._.)._.<XT.).iX7.3.2.8.8.8.8.8.8.M.C.V.Z.F.~.F.B.X . 5 ).gXlXlXlXgXtXrX9X9X5X6X<X:X).L.E.w.e.wX>X/./.",
"lXe.& X : i d r e q 5 : = O o . . ] R.'.`.8.3.>.2.6.6.9.4.4.6.B.G.Z.J.B.H.J.V A A ( F F F F F F S A C C m d d i q k.{ e.4X~ N N ",
"gXh.D 7                           ] 8XQ.,.C.3.>.O.>.:.:.%.o.&.4.n.A.B.D.@X$XQ.(.!.e.% X O = % % % # X + X X X # $ ^ ` h.<XF 6 M ",
"rXT.[ p                           ~ 9XsX5X8.6.3.>.>.%.o.K P Y &.<.B.B.J.@X-XpXpX:Xh.& X X # % # # # X X X X X X 5 ` d.P.*XR   M ",
"rXT.e.s                           W wXsX.X8.6.3.2.2.4.$.K K o.:.m.F.F.H.@X&X=X=XAXAX!.0 X X X X X X     X   X   % F R d.:XE   X ",
"9Xe.C 4                           ~ uXyXD.D.6.3.3.2.6.>.O.+.>.6.G.G.H.H.+X-X=X=XVXAXAXVX).F X +   X X           X p m ` :X^   # ",
"8X( 4                           _ wXaXyXS.D.7.6.3.2.3.>.>.O.4.B.J.H.G.H.#X-X-XpXAXVXZXAXVXAXtX/.s X X X X     X X 4 9 W _.}   X ",
"7XR % X                     F `.uXtXyXyX@X8.8.6.3.3.2.>.%.:.6.B.J.G.F..X@X&X&XcXVXAXAXCXVXAXAXNXAXxXwX!.W # X X X 4 5 W _._   # ",
"4XR 5 q u p p m m V A D R :XlXyXeXeXyXuX5XD.8.1.>.>.1.2.>.>.m.B.J.F.G.H.@X&XpXVXVXVXVXAXVXAXAXSXNXAXNXmXVXzX:Xr.% 5 q R :X{   X ",
"fX1X<X4X1X7X7X7X8XwXwXuXlXaXaXaXuXuXuXtXwX6XC.4.2.>.>.>.>.6.m.F.F.F.F.~.@XiXnXNXNXVXAXVXNXAXAXSXSXSXAXNXNXAXAXAXa.D V e.6Xv.W w ",
"zXzXxXjXzXlXzXzXlXlXaXlXaXuXaXuXyXyXyXyXwXwX6XZ.3.1.>.>.1.1.m.B.F.D.J.H.iXnXnXnXNXVXVXAXNXAXVXSXNXSXSXSXSXSXNXAXmX:Xa.0XgX8X).T ",
"xXxXxXxXxXxXlXhXyXyXaXaXuXuXuXuXyXaXyXyXtXwX5X5X%XJ.7.1.1.n.m.m.n.H.*XsXzXnXxXcXNXNXAXBXAXVXVXSXNXNXmXbXSXSXmXAXAXCXgXwXtX8X:XF ",
"xXxXxXcXzXgXuXuXtXyXyXuXuXuXwXuXyXyXhXyXuXwXwXwXiXqXqX4X6X6X6X4X9XsXsXvXkXhXnXNXNXBXBXBXAXVXVXVXSXmXmXmXSXnXSXVXNXVXCXVXlXyX8X( ",
"_.wXxXlXaXgXeXeXtXtXtXuXyXyXuXuXtXyXaXyXyXuXrXwX8X8XrXrXrXrXrXrXtXgXtXfXhXnXnXNXNXVXVXVXVXAXNXSXSXbXbXSXbXbXbXVXNXNXBXAXBXzXwX_ ",
"{ 4XlXlXyXyXeXuXtXuXtXtXtXyXtXtXuXtXgXyXyXyXtXtXwX4X8X8X7X7X7X8X9X9XgXlXcXnXNXmXNXNXNXSXSXNXVXSXmXmXbXmXbXbXbXNXmXNXNXNXBXmXwX~ ",
"i.wXaXyXuXgXrXrXtXuXrXrXtXtXyXyXyXyXyXyXyXyXtXtXrX8X8X8X9XrXrXrXhXlXxXnXnXmXcXNXSXSXnXnXnXnXNXnXmXmXbXcXvXbXvXNXbXmXmXNXNXNX_.s ",
"yXlXlXyXyXyXrXrXuXtXuXtXuXrXrXuXtXyXyXuXtXyXyXtXrXuXrXrXrX9XrXaXxXnXnXnXnXcXcXvXzXzXcXcXNXnXnXnXbXbXcXbXvXxXlXbXvXnXbXbXmXNX5Xq ",
"hXhXyXyXtXuXrXrXrXtXuXtXtXtXtXwXrXwXwXuXuXuXuXrXtXwXuXrXwX8XrXgXlXxXcXmXcXcXxXlXzXzXcXcXnXmXmXmXbXvXbXcXcXlXlXcXlXzXnXnXcXnXmXe.",
"yXyXyXuXuXtXtXrXrXrXuXtXtXuXuXtXuXrXwXrXrXrXrXrXrXrXwXrXrXrXyXzXlXlXlXzXzXxXxXzXzXzXzXcXcXnXcXcXcXcXcXvXvXlXlXzXaXlXzXxXxXnXnXtX",
"yXuXtXeXrXrXrXwXrXtXtXtXtXtXyXtXuXrXwXwXrXwXwXwXiXwXwXwXrXrXaXlXlXhXhXlXlXlXlXzXzXcXxXxXxXnXnXcXcXcXcXxXxXlXhXxXgXyXzXzXzXxXnXzX",
"eXwXwXeXwXrXrXwXrXuXtXtXtXtXyXuXuXrXwXwXwXwXwXrX8XwXwX8XwXtXaXaXhXhXhXlXlXzXlXxXxXxXxXcXxXcXcXcXvXbXvXxXzXlXaXxXyXyXzXgXzXzXxXxX"
};
